<svg width="2000" height="500" viewBox="0 0 2000 500" 
  xmlns="http://www.w3.org/2000/svg" fill="#F42C04">
  <path d="M122.15 411.873H298.371V479.518H0L180.456 195.942H4.23453V127.63H302.932L122.15 411.873Z"/>
  <path d="M632.248 303.908C632.248 273.028 621.281 246.37 599.349 223.933C577.416 201.496 551.249 190.277 520.847 190.277C490.445 190.277 464.278 201.496 442.345 223.933C420.63 246.148 409.772 272.806 409.772 303.908C409.772 335.231 420.63 362 442.345 384.215C464.061 406.43 490.228 417.538 520.847 417.538C551.466 417.538 577.633 406.43 599.349 384.215C621.281 361.778 632.248 335.009 632.248 303.908ZM699.023 303.908C699.023 353.669 681.542 396.434 646.58 432.2C611.618 467.522 569.707 485.183 520.847 485.183C471.77 485.183 429.859 467.522 395.114 432.2C360.369 396.656 342.997 353.892 342.997 303.908C342.997 253.923 360.369 211.159 395.114 175.615C430.076 139.849 471.987 121.966 520.847 121.966C569.707 121.966 611.618 139.849 646.58 175.615C681.542 211.381 699.023 254.146 699.023 303.908Z"/>
  <path d="M913.355 190.277C888.599 190.277 867.644 198.386 850.489 214.603C833.116 230.598 824.43 250.924 824.43 275.583V479.518H757.655V275.583C757.655 233.374 773.181 197.386 804.235 167.618C835.722 137.405 872.096 122.188 913.355 121.966V190.277Z"/>
  <path d="M1113.36 190.277C1088.6 190.277 1067.64 198.386 1050.49 214.603C1033.12 230.598 1024.43 250.924 1024.43 275.583V479.518H957.655V275.583C957.655 233.374 973.181 197.386 1004.23 167.618C1035.72 137.405 1072.1 122.188 1113.36 121.966V190.277Z"/>
  <path d="M1171.66 479.518V151.821L1238.11 127.63V479.518H1171.66Z"/>
  <path d="M1338.44 479.518V38.1906L1404.89 14V479.518H1338.44Z"/>
  <path d="M1505.21 479.518V38.1906L1571.66 14V479.518H1505.21Z"/>
  <path d="M1933.22 303.908C1933.22 273.028 1922.26 246.37 1900.33 223.933C1878.39 201.496 1852.23 190.277 1821.82 190.277C1791.42 190.277 1765.26 201.496 1743.32 223.933C1721.61 246.148 1710.75 272.806 1710.75 303.908C1710.75 335.231 1721.61 362 1743.32 384.215C1765.04 406.43 1791.21 417.538 1821.82 417.538C1852.44 417.538 1878.61 406.43 1900.33 384.215C1922.26 361.778 1933.22 335.009 1933.22 303.908ZM1933.22 479.518V437.532C1900.22 469.299 1861.24 485.183 1816.29 485.183C1768.51 485.183 1727.8 467.3 1694.14 431.533C1660.7 395.989 1643.97 353.447 1643.97 303.908C1643.97 253.923 1661.35 211.159 1696.09 175.615C1731.05 139.849 1772.96 121.966 1821.82 121.966C1870.68 121.966 1912.6 139.849 1947.56 175.615C1982.52 211.381 2000 254.146 2000 303.908V479.518H1933.22Z"/>
</svg>
